<svg width="100" height="100" viewBox="0 0 100 100" fill="none" xmlns="http://www.w3.org/2000/svg">
<g clip-path="url(#clip0_52_387)">
<path d="M23.8281 41.4062V38.4766C23.8281 33.6301 19.8855 29.6875 15.0391 29.6875H2.92969C1.31035 29.6875 0 30.9979 0 32.6172C0 34.2365 1.31035 35.5469 2.92969 35.5469H15.0391C16.6555 35.5469 17.9688 36.8602 17.9688 38.4766C17.9688 39.0098 17.9688 43.8432 17.9688 44.3359C17.9688 58.5484 29.2373 70.0521 43.3152 70.6002L53.5619 77.1805L43.2096 83.8283C41.8408 82.9477 40.2221 82.4219 38.4766 82.4219C33.6301 82.4219 29.6875 86.3645 29.6875 91.2109C29.6875 96.0574 33.6301 100 38.4766 100C42.291 100 45.5125 97.5434 46.726 94.1406H71.2428C72.4563 97.5434 75.6777 100 79.4922 100C84.3387 100 88.2812 96.0574 88.2812 91.2109C88.2812 86.3645 84.3387 82.4219 79.4922 82.4219C77.7467 82.4219 76.1279 82.9477 74.759 83.8285L64.4066 77.1807L74.6533 70.6004C88.7314 70.0521 100 58.5484 100 44.3359V41.4062H23.8281ZM63.6482 70.7031L58.9844 73.6982L54.3205 70.7031H63.6482ZM70.848 88.2812H47.1207L58.9844 80.6627L70.848 88.2812Z" fill="#F25C3A"/>
<path d="M67.7734 0C66.1555 0 64.8438 1.31172 64.8438 2.92969V31.4041L88.391 7.85684C82.8027 3.19844 75.6176 0 67.7734 0Z" fill="#F25C3A"/>
<path d="M92.5338 11.9995L68.9866 35.5468H100V32.6171C100 24.7729 97.1922 17.5878 92.5338 11.9995Z" fill="#F25C3A"/>
</g>
<defs>
<clipPath id="clip0_52_387">
<rect width="100" height="100" fill="white"/>
</clipPath>
</defs>
</svg>
