<svg width="100" height="100" viewBox="0 0 100 100" fill="none" xmlns="http://www.w3.org/2000/svg">
<path d="M84.091 81.8184H15.9268C14.6729 81.8184 13.6563 82.8349 13.654 84.0888L13.645 90.7161C13.6429 93.1951 14.606 95.5257 16.3572 97.279C18.1105 99.0347 20.4387 100 22.918 100H77.0906C82.2042 100 86.3635 95.8408 86.3635 90.7272V84.0909C86.3635 82.8349 85.3472 81.8184 84.091 81.8184Z" fill="#F25C3A"/>
<path d="M75 9.09099C73.6085 9.09099 72.179 9.23076 70.6654 9.51265C65.4652 3.44894 58.0123 0 50.0001 0C34.9611 0 22.7274 12.2337 22.7274 27.2727C22.7274 28.5267 21.7087 29.5455 20.4546 29.5455C19.2007 29.5455 18.1818 28.5269 18.1818 27.2727C18.1818 22.3521 19.3138 17.5913 21.5465 13.1237C21.9439 12.3292 21.8416 11.377 21.2868 10.6845C20.732 9.99653 19.8241 9.69014 18.9631 9.90107C7.79702 12.6865 0 22.634 0 34.0909C0 43.5369 5.32671 52.124 13.6896 56.3698L13.6651 74.9977C13.6651 75.5992 13.9027 76.1785 14.3288 76.6068C14.7571 77.0329 15.3343 77.2726 15.9379 77.2726H84.091C85.3473 77.2726 86.3638 76.2561 86.3638 74.9998V56.3363C94.6957 52.0794 100 43.5056 100 34.0907C100 20.3058 88.7851 9.09099 75 9.09099ZM33.2608 63.1215C32.8368 63.4677 32.3265 63.6365 31.8205 63.6365C31.1636 63.6365 30.511 63.3525 30.0605 62.8064C29.3103 61.8897 22.7274 53.6956 22.7274 47.7273C22.7274 46.4711 23.7439 45.4545 25.0002 45.4545C26.2564 45.4545 27.273 46.4711 27.273 47.7273C27.273 51.0167 31.1393 56.9515 33.5762 59.921C34.3705 60.8932 34.2307 62.3246 33.2608 63.1215ZM52.2727 61.3637C52.2727 62.6199 51.2561 63.6365 49.9999 63.6365C48.7436 63.6365 47.7273 62.6199 47.7273 61.3637V47.7273C47.7273 46.4711 48.7439 45.4545 50.0001 45.4545C51.2564 45.4545 52.2729 46.4711 52.2729 47.7273V61.3637H52.2727ZM69.9397 62.8064C69.489 63.3525 68.8388 63.6365 68.1819 63.6365C67.6737 63.6365 67.1632 63.4677 66.7415 63.1215C65.7716 62.3246 65.6295 60.8932 66.424 59.9233C68.8611 56.947 72.7272 51.0056 72.7272 47.7273C72.7272 46.4711 73.7438 45.4545 75 45.4545C76.2563 45.4545 77.2729 46.4711 77.2729 47.7273C77.2729 53.6954 70.6899 61.8897 69.9397 62.8064Z" fill="#F25C3A"/>
</svg>
