<svg width="100" height="100" viewBox="0 0 100 100" fill="none" xmlns="http://www.w3.org/2000/svg">
<path d="M86.5205 32.3422L67.6678 13.491L62.9548 18.2037L81.8078 37.0567L86.5205 32.3422Z" fill="#F25C3A"/>
<path d="M97.8088 21.0543C99.2003 19.6644 99.967 17.8131 99.967 15.8483C99.967 13.8801 99.2005 12.0303 97.8088 10.6405L89.3715 2.20137C87.9816 0.809923 86.1318 0.0432129 84.1637 0.0432129C82.1973 0.0432129 80.3475 0.809728 78.9576 2.20137L70.0237 11.1338L88.8766 29.9867L97.8088 21.0543Z" fill="#F25C3A"/>
<path d="M3.57254 78.0119L0.037979 98.043C-0.0569321 98.5797 0.11629 99.1279 0.499646 99.5112C0.816211 99.8278 1.2396 99.9994 1.67783 99.9994C1.7745 99.9994 1.87117 99.991 1.96784 99.9744L21.2823 96.5649L3.59422 77.947C3.58914 77.9685 3.57586 77.9886 3.57254 78.0119Z" fill="#F25C3A"/>
<path d="M13.8066 83.8603C13.8166 83.8485 13.8199 83.8337 13.8316 83.8235L68.8254 28.8298C68.832 28.8214 68.8437 28.8198 68.8504 28.8132L60.598 20.5608L5.76416 75.3946L13.8066 83.8603Z" fill="#F25C3A"/>
<path d="M71.1984 31.1606C71.1918 31.169 71.1885 31.179 71.1818 31.1856L16.1881 86.1794C16.1564 86.2128 16.1131 86.2228 16.0781 86.2526L24.1339 94.7318L79.4508 39.413L71.1984 31.1606Z" fill="#F25C3A"/>
<path d="M3.81871 22.6739L12.0695 14.4249C12.7195 13.775 13.7744 13.775 14.4259 14.4249C15.0758 15.0766 15.0758 16.1313 14.4259 16.7813L6.17684 25.0303L8.53321 27.3885L14.4259 21.4958C15.0758 20.8458 16.1308 20.8458 16.7823 21.4958C17.4322 22.1472 17.4322 23.2022 16.7823 23.8521L10.8896 29.7448L13.2477 32.1012L21.4968 23.8521C22.1467 23.2022 23.2017 23.2022 23.8532 23.8521C24.5048 24.5038 24.5048 25.5586 23.8532 26.2085L15.6041 34.4576L17.9605 36.8139L23.8532 30.923C24.5048 30.2713 25.558 30.2713 26.2095 30.923C26.8612 31.5729 26.8612 32.6279 26.2095 33.2794L20.3168 39.1721L22.675 41.5285L30.9223 33.2794C31.574 32.6277 32.6287 32.6277 33.2787 33.2794C33.9303 33.9293 33.9303 34.9843 33.2787 35.6358L25.0313 43.8848L27.7361 46.5878C28.0611 46.9146 28.4878 47.0761 28.9143 47.0761C29.3393 47.0761 29.766 46.9144 30.0925 46.5878L46.5889 30.0915C47.2405 29.44 47.2405 28.3866 46.5889 27.7351L20.3186 1.46307C18.3671 -0.486712 15.1959 -0.486712 13.2477 1.46307L1.46233 13.2467C-0.487445 15.1965 -0.487445 18.3678 1.46233 20.3176L3.81871 22.6739Z" fill="#F25C3A"/>
<path d="M82.756 79.4473C81.9076 79.4473 81.0595 79.7689 80.4146 80.4138C79.1232 81.7037 79.1232 83.805 80.4146 85.0966C81.7061 86.3848 83.8076 86.3848 85.0957 85.0966C86.3872 83.8052 86.3872 81.7054 85.0957 80.4138C84.4507 79.7689 83.6041 79.4473 82.756 79.4473Z" fill="#F25C3A"/>
<path d="M98.8513 79.9951L71.4427 52.5898C70.791 51.9382 69.7378 51.9382 69.0863 52.5898L52.5899 69.0862C51.9384 69.7379 51.9384 70.7911 52.5899 71.4426L55.6697 74.5239L61.5606 68.6312C62.2123 67.9797 63.2655 67.9797 63.917 68.6312C64.5687 69.2829 64.5687 70.3361 63.917 70.9876L58.026 76.8803L60.3824 79.2366L68.6315 70.9876C69.283 70.3361 70.3364 70.3361 70.9879 70.9876C71.6393 71.6392 71.6393 72.694 70.9879 73.3439L62.7388 81.593L79.9952 98.851C80.7602 99.616 81.7667 99.9976 82.7717 99.9976C83.7767 99.9976 84.7814 99.616 85.5464 98.851L98.8515 85.5459C100.383 84.0164 100.383 81.5248 98.8513 79.9951ZM87.4526 87.4527C86.1594 88.7475 84.4563 89.3941 82.7565 89.3941C81.0549 89.3941 79.3535 88.7475 78.057 87.4527C75.469 84.8629 75.469 80.6484 78.057 78.0571C80.6483 75.4706 84.8646 75.4673 87.4526 78.0571C90.0424 80.6484 90.0424 84.8629 87.4526 87.4527Z" fill="#F25C3A"/>
</svg>
