<svg width="100" height="100" viewBox="0 0 100 100" fill="none" xmlns="http://www.w3.org/2000/svg">
<path d="M50 0C22.4295 0 0 22.4295 0 50C0 77.5704 22.4295 100 50 100C77.5704 100 100 77.5704 100 50C100 22.4295 77.5704 0 50 0ZM59.9068 36.8909L73.5432 25.5273C74.5114 24.7227 75.9432 24.8545 76.7455 25.8182C77.5477 26.7818 77.4182 28.2159 76.4545 29.0182L64.9136 38.6364L76.4545 48.2545C77.4182 49.0591 77.5477 50.4909 76.7455 51.4545C76.2955 51.9932 75.65 52.2727 74.9977 52.2727C74.4841 52.2727 73.9705 52.1 73.5432 51.7455L59.9068 40.3818C59.3909 39.95 59.0909 39.3114 59.0909 38.6364C59.0909 37.9614 59.3909 37.3227 59.9068 36.8909ZM25.8159 29.0182C24.8523 28.2136 24.7227 26.7818 25.525 25.8182C26.3295 24.8545 27.7568 24.7227 28.7273 25.5273L42.3636 36.8909C42.8818 37.3227 43.1818 37.9614 43.1818 38.6364C43.1818 39.3114 42.8818 39.95 42.3659 40.3818L28.7295 51.7455C28.3023 52.1 27.7886 52.2727 27.275 52.2727C26.6227 52.2727 25.9773 51.9932 25.525 51.4545C24.7205 50.4909 24.8523 49.0568 25.8159 48.2545L37.3568 38.6364L25.8159 29.0182ZM50 90.9091C34.9614 90.9091 22.7273 78.675 22.7273 63.6364C22.7273 62.3818 23.7432 61.3636 25 61.3636H75C76.2568 61.3636 77.2727 62.3818 77.2727 63.6364C77.2727 78.675 65.0386 90.9091 50 90.9091Z" fill="#F25C3A"/>
</svg>
