<svg width="100" height="100" viewBox="0 0 100 100" fill="none" xmlns="http://www.w3.org/2000/svg">
<path d="M83.0304 81.3133C82.8046 95.1666 75.4221 100.179 67.5863 99.7147C59.7503 99.2522 54.3001 95.6189 48.7348 95.6189L48.5068 95.7462C42.9415 95.7462 37.4915 99.507 29.6555 99.9694C21.8192 100.432 14.4372 95.6722 14.2114 81.8188C14.6657 69.0998 24.3555 68.1645 32.6089 53.1394C39.8762 39.9087 48.5072 40.9794 48.5072 40.9794H48.7348C48.7348 40.9794 57.4403 39.9661 64.6333 53.1394C72.8472 68.185 82.5761 68.5938 83.0304 81.3133ZM34.5133 35.2716C41.454 34.7453 46.4826 26.4289 45.7447 16.696C45.0067 6.96339 38.7816 -0.500095 31.8409 0.0262097C24.9001 0.552514 19.8715 8.86909 20.6095 18.6017C21.3475 28.3344 27.5723 35.7979 34.5133 35.2716ZM60.8199 35.4406C67.6027 37.2895 75.2032 31.0786 77.7956 21.568C80.3878 12.0574 76.9909 2.84863 70.2084 0.999718C63.4256 -0.849196 55.8251 5.36172 53.2329 14.8723C50.6405 24.3827 54.0372 33.5917 60.8199 35.4406ZM92.244 27.8258C86.3376 26.2155 79.7188 31.6239 77.4613 39.906C75.2038 48.1881 78.1619 56.2071 84.0684 57.8172C89.9751 59.4272 96.5937 54.0188 98.8514 45.7367C101.109 37.455 98.1509 29.4358 92.244 27.8258ZM22.5388 39.9054C20.2812 31.6237 13.6628 26.215 7.75612 27.8251C1.84943 29.4352 -1.10888 37.4543 1.1488 45.7362C3.40648 54.0179 10.0251 59.4266 15.9317 57.8165C21.8382 56.2066 24.7963 48.1875 22.5388 39.9054Z" fill="#F25C3A"/>
</svg>
