<svg width="98" height="100" viewBox="0 0 98 100" fill="none" xmlns="http://www.w3.org/2000/svg">
<path d="M38.5114 0C37.7414 0 37.0522 0.166437 36.4469 0.502673C33.8293 1.02048 32.1515 2.68148 30.9125 3.90706C30.0887 4.72244 29.3776 5.42685 28.7623 5.42685H28.7606C27.9704 5.37642 27.2458 5.34616 26.5784 5.34616C22.019 5.34616 19.6368 6.93487 17.4782 11.4186C17.4076 11.5632 17.3302 11.6556 17.2579 11.7683H18.5625C24.1256 11.7683 28.6496 16.2923 28.6496 21.8554C28.6496 22.785 27.8965 23.5365 26.9684 23.5365C26.0404 23.5365 25.2873 22.785 25.2873 21.8554C25.2873 18.1467 22.2712 15.1306 18.5625 15.1306H10.6257C6.54209 18.1534 4.02536 23.5887 4.35656 29.0626C4.51795 31.7323 3.79168 36.1151 2.49045 38.1376C-0.715566 43.1273 -0.715566 50.0975 2.49045 55.0873C2.98639 55.8572 3.71266 56.7533 4.55326 57.7923C6.05287 59.6449 8.56455 62.7434 8.47881 64.1623C8.09718 70.4432 11.9303 77.6806 17.0226 80.2949C17.9388 80.7656 18.0935 81.2414 18.4398 82.6822C18.4785 82.8385 18.5205 83.0083 18.5625 83.1798V81.0766C18.5625 74.589 23.8414 69.3084 30.3308 69.3084C31.2588 69.3084 32.012 70.0599 32.012 70.9895C32.012 71.9192 31.2588 72.6707 30.3308 72.6707C25.6958 72.6707 21.9249 76.4416 21.9249 81.0766V88.5713C22.8226 89.1917 23.7423 89.5447 24.5206 89.8406C26.0942 90.4374 26.7448 90.6863 26.9836 92.4112C27.6392 97.1622 30.4535 100 34.5119 100C40.4868 100 47.1426 93.6082 47.1426 84.439V22.2353C47.1426 23.165 46.3894 23.9165 45.4614 23.9165C39.8984 23.9165 35.3743 28.4405 35.3743 34.0036C35.3743 41.4193 29.3406 47.453 21.9249 47.453C20.9969 47.453 20.2437 46.7015 20.2437 45.7718C20.2437 44.8421 20.9969 44.0907 21.9249 44.0907C27.4879 44.0907 32.012 39.5666 32.012 34.0036C32.012 26.5879 38.0457 20.5541 45.4614 20.5541C46.3894 20.5541 47.1426 21.3056 47.1426 22.2353V7.10467C47.1443 3.74399 41.9982 0 38.5114 0ZM33.6948 55.4521C33.6948 52.2007 34.9625 49.1426 37.264 46.8427C37.9213 46.1854 38.9838 46.1854 39.6412 46.8427C40.2985 47.5001 40.2985 48.5626 39.6412 49.2199C37.9751 50.886 37.0572 53.1001 37.0572 55.4521C37.0572 57.804 37.9751 60.0182 39.6412 61.6842C40.2985 62.3416 40.2985 63.4041 39.6412 64.0614C37.9751 65.7274 37.0572 67.9416 37.0572 70.2935C37.0572 72.6455 37.9751 74.8596 39.6412 76.5257C40.2985 77.183 40.2985 78.2455 39.6412 78.9029C39.3134 79.2307 38.883 79.3955 38.4526 79.3955C38.0222 79.3955 37.5918 79.2307 37.264 78.9029C34.9625 76.603 33.6948 73.5433 33.6948 70.2935C33.6948 67.5734 34.5943 64.9945 36.2334 62.8728C34.5926 60.7545 33.6948 58.1739 33.6948 55.4521ZM21.666 59.65C21.666 59.6517 21.666 59.6517 21.666 59.65C21.012 61.427 21.9249 63.4057 23.7002 64.0597C24.5711 64.3825 25.0166 65.3492 24.6938 66.22C24.4433 66.8976 23.8011 67.3178 23.1169 67.3178C22.9235 67.3178 22.7268 67.2842 22.5335 67.2136C19.0198 65.9141 17.2159 62.0003 18.5104 58.4866C18.5104 58.4849 18.5104 58.4832 18.5104 58.4832C19.1661 56.7079 18.2532 54.7292 16.4762 54.0735C15.6053 53.7524 15.1598 52.784 15.4826 51.9132C15.8037 51.0423 16.7754 50.6002 17.6429 50.9179C21.16 52.2208 22.9639 56.1363 21.666 59.65ZM24.7291 33.8876C23.717 36.6296 21.1112 38.3309 18.3457 38.3309C17.5656 38.3309 16.7738 38.1947 16.0004 37.9106C14.22 37.2499 12.2463 38.1662 11.589 39.9432C11.3385 40.6207 10.6963 41.041 10.012 41.041C9.81871 41.041 9.62201 41.0074 9.43036 40.9368C8.55951 40.6157 8.114 39.6473 8.4351 38.7764C9.73129 35.2628 13.6501 33.4639 17.1638 34.7534C18.9374 35.4107 20.9179 34.4995 21.5752 32.7208C21.8963 31.85 22.8664 31.4061 23.7355 31.7256C24.6064 32.0484 25.0519 33.0167 24.7291 33.8876Z" fill="#F25C3A"/>
<path d="M95.5096 37.7576C94.21 35.7369 93.4821 31.3507 93.6452 28.6826C93.9763 23.207 91.4596 17.7734 87.376 14.7507H79.4375C76.6568 14.7507 74.394 17.0136 74.394 19.7942C74.394 20.7239 73.6408 21.4754 72.7128 21.4754C71.7848 21.4754 71.0316 20.7239 71.0316 19.7942C71.0316 15.1592 74.8025 11.3883 79.4375 11.3883H80.7421C80.6698 11.2757 80.5925 11.1832 80.5235 11.0403C78.3666 6.55661 75.9844 4.96789 71.425 4.96789C70.7576 4.96789 70.033 4.99815 69.2058 5.05027C68.7334 5.05027 67.9987 4.26179 67.2859 3.5019C66.0402 2.1704 64.3758 0.388353 61.738 0.0857402L60.889 0C55.4521 0 50.8574 3.07992 50.8574 6.72472V84.0591C50.8574 93.2282 57.5132 99.6184 63.4881 99.6201C63.4881 99.6201 63.4881 99.6201 63.4898 99.6201C67.5465 99.6201 70.3591 96.7822 71.0165 92.0312C71.2552 90.3063 71.9058 90.0575 73.4794 89.4607C74.2578 89.1648 75.1774 88.8117 76.0751 88.1914V80.6967C76.0751 76.0617 72.3042 72.2908 67.6692 72.2908C66.7412 72.2908 65.988 71.5393 65.988 70.6096C65.988 69.6799 66.7412 68.9284 67.6692 68.9284C74.1586 68.9284 79.4375 74.209 79.4375 80.6967V82.8015C79.4812 82.63 79.5232 82.4603 79.5619 82.3022C79.9099 80.8631 80.0629 80.384 80.9791 79.9149C86.0698 77.3007 89.9028 70.0666 89.5229 63.7823C89.5078 63.5201 89.6036 63.1855 89.7431 62.8257L84.7248 57.0038C82.8806 53.9441 79.6476 52.1166 76.0751 52.1166C68.6594 52.1166 62.6257 46.0829 62.6257 38.6672C62.6257 37.7375 63.3789 36.986 64.3069 36.986C65.2349 36.986 65.988 37.7375 65.988 38.6672C65.988 44.2302 70.5121 48.7542 76.0751 48.7542C80.7875 48.7542 85.0577 51.1398 87.5273 55.1444L91.5605 59.8181C92.2061 58.9439 92.8953 58.0932 93.4468 57.4106C94.2874 56.3734 95.0136 55.4773 95.5096 54.7073C98.7156 49.7176 98.7156 42.7474 95.5096 37.7576ZM63.004 52.0813C67.4389 56.5179 67.4389 63.7369 63.004 68.1719C61.4892 69.6866 60.6537 71.7007 60.6537 73.8391C60.6537 75.9776 61.4892 77.9917 63.004 79.5064C63.6613 80.1637 63.6613 81.2263 63.004 81.8836C62.6761 82.2131 62.2457 82.3779 61.8154 82.3779C61.385 82.3779 60.9546 82.2131 60.6268 81.8853C58.4765 79.7351 57.2913 76.877 57.2913 73.8408C57.2913 70.8046 58.4765 67.9466 60.6268 65.7964C63.7504 62.6711 63.7504 57.5855 60.6268 54.4602C59.9694 53.8028 59.9694 52.7403 60.6268 52.083C61.2841 51.4256 62.3483 51.4256 63.004 52.0813ZM83.0705 39.4069C82.4081 39.5212 81.7491 39.58 81.0985 39.58C75.6784 39.58 70.8652 35.6847 69.8951 30.1671C69.5236 28.0572 68.3552 26.218 66.6034 24.9891C64.8499 23.7618 62.7249 23.2844 60.6133 23.6609C59.6971 23.8122 58.8262 23.2087 58.6665 22.2941C58.5051 21.3796 59.1171 20.507 60.0316 20.3473C63.0292 19.8245 66.0469 20.4936 68.5334 22.237C71.0198 23.9804 72.6791 26.5912 73.2054 29.5854C73.9686 33.938 78.1363 36.8633 82.4872 36.0933C83.4068 35.9336 84.2743 36.5455 84.434 37.4601C84.597 38.3746 83.9851 39.2472 83.0705 39.4069Z" fill="#F25C3A"/>
</svg>
