<svg width="100" height="100" viewBox="0 0 100 100" fill="none" xmlns="http://www.w3.org/2000/svg">
<path d="M50 0C22.3861 0 0 22.3861 0 50C0 77.6139 22.3861 100 50 100C77.6139 100 100 77.6139 100 50C99.9691 22.3991 77.6009 0.0309246 50 0ZM51.7847 14.4149L69.1667 7.46663C71.1393 8.35938 73.0477 9.38802 74.8779 10.5452L74.9235 10.5737C76.722 11.7131 78.4408 12.9736 80.0684 14.3465L80.2083 14.4686C80.9383 15.0903 81.6479 15.734 82.3381 16.3981C82.4251 16.4836 82.5163 16.5649 82.6033 16.652C83.3268 17.3584 84.0275 18.0868 84.7054 18.8363C84.7616 18.8997 84.8153 18.9665 84.8714 19.0299C85.4663 19.6965 86.0384 20.3866 86.5934 21.0881C86.7269 21.2549 86.8604 21.4217 86.9897 21.5885C87.592 22.3682 88.1746 23.1616 88.7248 23.9803L85.2596 38.7101L68.2113 44.3937L51.7887 31.2533L51.7847 14.4149ZM13.0086 21.5983C13.138 21.4315 13.2699 21.2646 13.4033 21.0986C13.9518 20.4028 14.519 19.7241 15.105 19.0617C15.1685 18.9917 15.2271 18.9201 15.2897 18.8501C15.9635 18.099 16.661 17.3714 17.3836 16.6667C17.4666 16.5853 17.5496 16.4998 17.6367 16.425C18.3211 15.765 19.0251 15.1253 19.7485 14.5068L19.9154 14.3669C21.5283 13.0037 23.2308 11.7513 25.0114 10.6169L25.0765 10.5754C26.8962 9.42057 28.7923 8.39355 30.7536 7.5L48.2153 14.4149V31.2484L31.792 44.3864L14.7437 38.7134L11.2785 23.9836C11.8335 23.1665 12.4097 22.3747 13.0086 21.5983ZM11.0002 75.5754C10.5103 74.8283 10.0415 74.0674 9.59473 73.2918L9.48649 73.1047C9.04216 72.3332 8.62142 71.5487 8.2251 70.752L8.21126 70.7267C7.3763 69.0503 6.64307 67.325 6.01644 65.5599V65.5436C5.72021 64.7103 5.45003 63.8566 5.2002 62.998L5.10986 62.6815C4.88119 61.875 4.67367 61.0596 4.48812 60.2352C4.47184 60.1546 4.4515 60.0781 4.43522 59.9984C4.02588 58.1364 3.7321 56.2516 3.55469 54.353L13.7297 42.1436L30.66 47.7865L35.5737 67.4398L27.5 78.182L11.0002 75.5754ZM61.0986 95.3214C60.2653 95.5282 59.41 95.7064 58.5547 95.8667C58.4351 95.8903 58.313 95.9098 58.1934 95.9318C57.465 96.062 56.7285 96.1735 55.9904 96.2646C55.7935 96.2899 55.5981 96.3167 55.402 96.3403C54.7168 96.4201 54.0251 96.4803 53.3317 96.5299C53.1136 96.5446 52.8979 96.5666 52.6798 96.5804C51.7936 96.6349 50.9001 96.6667 50 96.6667C49.1756 96.6667 48.3561 96.6447 47.5415 96.6016C47.443 96.6016 47.3486 96.5853 47.2502 96.578C46.5251 96.5365 45.8032 96.4819 45.083 96.4119L45 96.3965C43.422 96.2256 41.853 95.9749 40.3003 95.647L30.4419 80.2116L38.3887 69.6151H61.6113L69.6883 80.2816L61.0986 95.3214ZM95.577 60C95.5599 60.0798 95.5404 60.1571 95.5233 60.2368C95.3369 61.0604 95.1294 61.8758 94.9015 62.6831L94.812 62.9997C94.5614 63.8582 94.292 64.7087 93.9949 65.5452V65.5615C93.3683 67.3267 92.6359 69.0519 91.8001 70.7283L91.7863 70.7536C91.3875 71.5511 90.9676 72.3356 90.5249 73.1063L90.4167 73.2935C89.9723 74.0714 89.5044 74.8307 89.0137 75.5737L72.57 78.1665L64.4401 67.4333L69.3514 47.7848L86.2817 42.1419L96.4567 54.3514C96.2801 56.2508 95.9863 58.1372 95.577 60Z" fill="#F25C3A"/>
</svg>
