<svg width="100" height="78" viewBox="0 0 100 78" fill="none" xmlns="http://www.w3.org/2000/svg">
<path d="M73.922 59.7857C73.922 59.7857 73.8605 59.8505 73.7487 59.959C67.3288 57.3894 60.1641 59.2757 54.5603 54.2482C48.8965 49.169 44.6203 41.1996 39.9329 35.1699C34.7759 28.5314 29.4587 22.0192 24.054 15.5831C20.2085 11.0074 16.682 5.71114 11.7485 2.24293C11.0506 0.873135 10.4192 0.304816 9.2987 1.11277C8.78058 1.22935 8.38065 1.64385 8.21388 2.14902C7.57755 2.86954 6.81979 3.88313 5.88069 5.25292C-0.505217 14.5873 -1.48804 22.6927 1.95103 32.0287C5.39009 41.3631 4.65338 74.2787 4.65338 74.2787C4.65338 74.2787 6.12842 76.2427 7.60184 75.2599C9.07688 74.2787 5.63782 43.081 8.34017 39.3958C8.34017 39.3958 19.8847 33.0083 29.7113 54.8716C39.5378 76.7333 44.2042 77.2239 51.0823 77.2239C57.9621 77.2239 78.1042 77.7161 92.8417 75.0122C107.578 72.3114 98.7338 66.9083 73.922 59.7857ZM51.5713 63.4693C42.7276 53.1521 21.3565 17.5341 15.9534 10.1654C15.8546 10.0326 15.7639 9.89825 15.6717 9.76548C18.5699 13.0167 21.1508 16.6906 23.7706 19.809C30.2893 27.5696 36.5716 35.5293 42.7259 43.5797C46.3739 48.3513 49.5182 53.6783 54.0162 57.7116C58.9627 62.1497 65.4328 60.4269 71.2326 62.1691C66.8382 65.6486 57.9799 70.9481 51.5713 63.4693Z" fill="#F25C3A"/>
</svg>
