<svg width="208" height="51" viewBox="0 0 208 51" fill="none" xmlns="http://www.w3.org/2000/svg">
<path fill-rule="evenodd" clip-rule="evenodd" d="M23.548 47.1726C23.6433 47.6893 23.7005 48.0147 23.3954 48.2443C22.7281 47.1535 22.4421 45.7757 22.2705 43.9577C22.0798 44.0916 21.8891 44.2256 21.6985 44.3595C21.6794 44.2447 21.6794 44.1299 21.6603 44.0151C21.9273 42.8286 21.6031 41.5082 21.1455 40.4557C20.9739 40.8193 20.8977 41.1829 20.6307 41.4699C20.2684 40.4748 19.9062 39.4988 19.5439 38.5037C19.2198 37.279 19.3342 35.7097 19.4295 34.7338C19.7918 31.0978 18.0948 27.6149 16.7029 25.7778C16.6648 25.7778 16.6457 25.7778 16.6076 25.7778C16.5695 25.9883 16.5314 26.1988 16.4932 26.4093C16.436 26.4093 16.3788 26.4284 16.3216 26.4284C15.5208 22.7159 11.6121 23.5388 11.002 17.7212C11.1164 17.6829 11.2308 17.6447 11.3452 17.6064C12.165 17.7786 12.2032 17.5107 12.6989 17.128C12.718 17.5681 12.737 17.8935 12.9658 18.0657C14.0145 18.6972 15.0823 19.3287 16.1309 19.9602C15.2348 18.5058 14.3196 17.0323 13.4234 15.5779C13.1374 15.6927 12.8705 15.8075 12.5845 15.9224C12.5845 15.8841 12.5845 15.865 12.5845 15.8267C12.8324 14.9464 12.4701 14.3531 12.6989 13.358C12.9277 12.3629 13.4234 11.0999 13.862 10.0857C14.0526 10.0091 14.2624 9.93256 14.4531 9.85602C17.008 11.1765 19.3723 14.8316 22.1942 15.597C24.5776 16.2477 27.4757 15.2717 29.5349 16.286C31.0603 17.0323 31.823 19.654 33.1004 20.4195C34.2254 20.6683 35.3694 20.8979 36.4943 21.1467C38.096 21.6442 39.3544 22.7733 40.8225 23.3474C40.8416 23.4622 40.8416 23.5771 40.8607 23.6919C39.7738 24.8592 38.401 25.8352 36.1893 26.084C37.4286 27.6532 38.973 30.2749 40.8035 31.0787C40.7844 31.1743 40.7653 31.2509 40.7463 31.3466C40.403 31.404 40.0599 31.4805 39.7166 31.5379C39.7738 31.5379 39.831 31.5188 39.8882 31.5188C41.0323 32.5139 42.1953 33.5282 43.3394 34.5233C43.3394 34.5615 43.3394 34.5807 43.3394 34.619C43.0533 34.619 42.7483 34.619 42.4623 34.619C42.7101 35.4418 43.4156 36.0159 44.1211 36.303C44.0639 36.3987 44.0258 36.4944 43.9686 36.59C43.7398 36.6666 43.5109 36.7431 43.3012 36.8388C44.3308 37.2215 46.1803 38.0253 47.1718 38.8482C49.5551 34.9251 50.928 30.3132 50.9089 25.3759C50.8326 11.2721 39.3734 -0.095084 25.3212 0.000599657C11.2308 0.0197364 -0.0758839 11.5209 0.000383577 25.6247C0.076651 39.518 11.2117 50.7512 24.978 51C24.6348 49.6987 24.4822 47.5554 23.548 47.1726Z" fill="#927398"/>
<path fill-rule="evenodd" clip-rule="evenodd" d="M94.637 16.0288C89.3532 16.0288 85.0759 20.3138 85.0759 25.6069C85.0759 30.9001 89.3532 35.1851 94.637 35.1851C99.9207 35.1851 104.198 30.9001 104.198 25.6069C104.198 20.3138 99.9207 16.0288 94.637 16.0288ZM94.637 31.6563C91.2822 31.6563 88.5984 28.9397 88.5984 25.6069C88.5984 22.2742 91.3102 19.5576 94.637 19.5576C97.9918 19.5576 100.676 22.2742 100.676 25.6069C100.676 28.9397 97.9638 31.6563 94.637 31.6563ZM81.2738 16.1968L76.8567 28.7717L72.6074 16.0288H70.6225L66.1215 28.7717L62.0119 16.1968H58.1819L64.7237 35.1011H67.2677L71.545 22.9463L75.6267 35.1011H78.1707L85.1039 16.1968H81.2738ZM110.6 16.1968H106.994V34.681H116.303V31.5723H110.6V16.1968ZM130.701 19.3055L131.232 16.1968H118.791V34.681H122.398V26.5312H129.275L129.806 23.4225H122.398V19.3055H130.701Z" fill="#927398"/>
<path fill-rule="evenodd" clip-rule="evenodd" d="M177.08 18.2133C175.039 16.701 172.803 16.4209 170.231 16.4209H153.429L153.96 19.6136H169.029V19.5296H170.147C171.377 19.5296 173.194 19.6416 174.676 20.7619C176.13 21.8821 176.94 23.7585 176.94 25.691C176.94 27.6514 176.102 29.5558 174.648 30.5921C173.055 31.7683 171.042 31.8244 170.147 31.8244H169.029V31.7684H155.973L156.504 34.9331H170.203C172.775 34.9331 174.788 34.681 176.968 33.1687C179.401 31.4603 180.687 28.7997 180.687 25.719C180.631 22.6103 179.317 19.9217 177.08 18.2133ZM168.945 23.6745H154.631L155.162 26.8673H168.973V23.6745H168.945ZM183.762 34.9051H187.368V16.4209H183.762V34.9051ZM200.228 16.0288H197.516L189.521 34.9051H193.435L195.056 31.0122H202.493L204.114 34.9051H208L200.228 16.0288ZM196.202 28.0995L198.858 21.434L201.458 28.0995H196.202ZM147.419 16.0848L142.191 28.1835L137.187 16.0848H134.698L131.26 34.9051H134.922L136.795 23.5065L141.632 35.1571H142.638L147.698 23.5065L149.348 34.9051H153.01L149.907 16.0848H147.419Z" fill="#927398"/>
</svg>
