<svg width="24" height="24" viewBox="0 0 24 24" fill="none" xmlns="http://www.w3.org/2000/svg">
<path d="M18.9674 14.8676C18.4761 14.356 17.8835 14.0825 17.2554 14.0825C16.6323 14.0825 16.0346 14.3509 15.523 14.8625L13.9223 16.4581C13.7906 16.3872 13.6589 16.3214 13.5323 16.2555C13.35 16.1643 13.1777 16.0782 13.0308 15.9871C11.5315 15.0348 10.1689 13.7937 8.86204 12.188C8.22887 11.3877 7.80338 10.714 7.49439 10.0302C7.90975 9.65028 8.29472 9.25518 8.66956 8.87528C8.81139 8.73345 8.95322 8.58655 9.09505 8.44472C10.1588 7.381 10.1588 6.00322 9.09505 4.93949L7.7122 3.55665C7.55518 3.39962 7.39309 3.23753 7.24112 3.07544C6.9372 2.76139 6.61808 2.4372 6.28884 2.13328C5.7975 1.64701 5.20991 1.38867 4.59194 1.38867C3.97397 1.38867 3.37625 1.64701 2.86972 2.13328C2.86465 2.13835 2.86465 2.13835 2.85959 2.14341L1.13736 3.88083C0.488995 4.5292 0.119223 5.31939 0.0381772 6.23623C-0.0833915 7.71531 0.35223 9.09309 0.686544 9.99473C1.50713 12.2083 2.73295 14.2598 4.56155 16.4581C6.78018 19.1073 9.44962 21.1993 12.499 22.6733C13.664 23.2255 15.2191 23.8789 16.9565 23.9903C17.0629 23.9954 17.1743 24.0005 17.2756 24.0005C18.4457 24.0005 19.4284 23.58 20.1983 22.7442C20.2034 22.7341 20.2135 22.7291 20.2186 22.7189C20.482 22.3998 20.7859 22.1111 21.105 21.8021C21.3228 21.5944 21.5457 21.3766 21.7635 21.1487C22.265 20.6269 22.5284 20.0191 22.5284 19.396C22.5284 18.7679 22.2599 18.1652 21.7483 17.6586L18.9674 14.8676ZM20.7808 20.2014C20.7758 20.2014 20.7758 20.2065 20.7808 20.2014C20.5833 20.4142 20.3807 20.6067 20.1629 20.8194C19.8336 21.1335 19.4993 21.4627 19.1853 21.8325C18.6737 22.3795 18.0709 22.6379 17.2807 22.6379C17.2047 22.6379 17.1236 22.6379 17.0477 22.6328C15.5433 22.5366 14.1452 21.949 13.0967 21.4475C10.2297 20.0596 7.7122 18.0892 5.62021 15.592C3.89292 13.5101 2.73802 11.5852 1.97315 9.51858C1.50207 8.25731 1.32985 7.27463 1.40583 6.34766C1.45648 5.75502 1.68442 5.26368 2.10485 4.84325L3.83213 3.11596C4.08034 2.88295 4.34374 2.75632 4.60207 2.75632C4.92119 2.75632 5.17952 2.9488 5.34161 3.1109C5.34668 3.11596 5.35174 3.12103 5.35681 3.12609C5.6658 3.41482 5.95959 3.71367 6.26857 4.03279C6.4256 4.19488 6.58769 4.35698 6.74978 4.52413L8.13263 5.90698C8.66956 6.44391 8.66956 6.94031 8.13263 7.47724C7.98573 7.62414 7.8439 7.77103 7.69701 7.91286C7.27152 8.34848 6.86629 8.75371 6.4256 9.14881C6.41547 9.15894 6.40534 9.16401 6.40027 9.17414C5.96465 9.60976 6.0457 10.0352 6.13688 10.324C6.14194 10.3392 6.14701 10.3544 6.15207 10.3696C6.51171 11.2408 7.01825 12.0614 7.78818 13.039L7.79325 13.0441C9.19129 14.7663 10.6653 16.1086 12.2913 17.1369C12.499 17.2686 12.7117 17.375 12.9143 17.4763C13.0967 17.5674 13.2689 17.6536 13.4158 17.7447C13.4361 17.7549 13.4563 17.7701 13.4766 17.7802C13.6488 17.8663 13.8109 17.9068 13.9781 17.9068C14.3985 17.9068 14.6619 17.6434 14.748 17.5573L16.4803 15.825C16.6526 15.6527 16.9261 15.4451 17.2452 15.4451C17.5593 15.4451 17.8176 15.6426 17.9746 15.8148C17.9797 15.8199 17.9797 15.8199 17.9848 15.825L20.7758 18.616C21.2975 19.1326 21.2975 19.6645 20.7808 20.2014Z" fill="#927398"/>
<path d="M12.9701 5.70908C14.2972 5.93196 15.5028 6.56006 16.4652 7.52248C17.4276 8.4849 18.0507 9.69046 18.2786 11.0176C18.3343 11.3519 18.6231 11.5849 18.9523 11.5849C18.9928 11.5849 19.0283 11.5798 19.0688 11.5748C19.4436 11.514 19.6918 11.1594 19.6311 10.7846C19.3575 9.17886 18.5977 7.71497 17.4378 6.555C16.2778 5.39503 14.8139 4.63522 13.2082 4.36169C12.8333 4.30091 12.4838 4.54911 12.418 4.91888C12.3521 5.28866 12.5953 5.6483 12.9701 5.70908Z" fill="#927398"/>
<path d="M23.9721 10.5869C23.5213 7.94279 22.2752 5.53674 20.3605 3.62203C18.4458 1.70732 16.0397 0.461243 13.3956 0.0104253C13.0258 -0.0554245 12.6763 0.197844 12.6105 0.567615C12.5497 0.942452 12.7979 1.29196 13.1727 1.35781C15.5332 1.75798 17.686 2.87742 19.3981 4.58445C21.1101 6.29654 22.2245 8.44932 22.6247 10.8098C22.6804 11.1441 22.9691 11.3771 23.2984 11.3771C23.3389 11.3771 23.3744 11.372 23.4149 11.367C23.7847 11.3113 24.0379 10.9567 23.9721 10.5869Z" fill="#927398"/>
</svg>
