<svg width="100" height="100" viewBox="0 0 100 100" fill="none" xmlns="http://www.w3.org/2000/svg">
<g clip-path="url(#clip0_342_1572)">
<path d="M99.7375 55.3832L93.4875 46.0082C92.9078 45.1379 91.4672 45.1379 90.8875 46.0082L84.6375 55.3832C84.3172 55.8629 84.2875 56.4785 84.5594 56.9863C84.8313 57.4941 85.361 57.8129 85.9375 57.8129H87.2078C84.8875 76.3441 68.8625 90.6254 50 90.6254C34.6078 90.6254 20.5438 80.9801 15.0031 66.6254C14.7703 66.0238 14.1922 65.6254 13.5453 65.6254L6.91095 65.6223C6.41095 65.6223 5.94064 65.8613 5.64689 66.266C5.35314 66.6723 5.27033 67.1941 5.42502 67.6676C11.7313 87.0082 29.6453 100 50 100C74.0672 100 94.2781 81.5879 96.6438 57.8129H98.4375C99.0141 57.8129 99.5438 57.4957 99.8156 56.9879C100.088 56.4801 100.056 55.8629 99.7375 55.3832Z" fill="#F25C3A"/>
<path d="M7.81251 54.6875C8.33439 54.6875 8.82189 54.4266 9.11251 53.9922L15.3625 44.6172C15.6828 44.1375 15.7125 43.5219 15.4406 43.0141C15.1688 42.5047 14.6391 42.1875 14.0625 42.1875H12.7906C15.1125 23.6562 31.1375 9.375 50 9.375C61.9063 9.375 72.8422 14.8438 80.0047 24.3781C80.3297 24.8078 80.8484 25.05 81.3875 24.9969C81.925 24.9516 82.3984 24.6328 82.6453 24.1531L85.7656 18.0656C86.0563 17.5016 85.975 16.8156 85.5609 16.3359C76.6375 5.95469 63.6766 0 50 0C25.9328 0 5.72033 18.4125 3.35626 42.1875H1.56251C0.985952 42.1875 0.456264 42.5047 0.184389 43.0125C-0.0874858 43.5203 -0.0577983 44.1375 0.262514 44.6156L6.51251 53.9906C6.80314 54.4266 7.29064 54.6875 7.81251 54.6875Z" fill="#F25C3A"/>
<path d="M85.5375 34.8721C86.1953 36.8174 86.6953 38.8362 87.0218 40.8721C87.1437 41.6315 87.7968 42.1877 88.5656 42.1877L94.8859 42.1862C95.3375 42.1862 95.7672 41.9909 96.064 41.6502C96.3609 41.3096 96.4953 40.8565 96.4328 40.4096C95.8156 35.933 94.5531 31.5799 92.6828 27.4705C92.4484 26.9565 91.9547 26.608 91.3922 26.5612C90.8312 26.5002 90.2844 26.7737 89.9687 27.2409L85.7265 33.4955C85.45 33.8987 85.3812 34.4096 85.5375 34.8721Z" fill="#F25C3A"/>
<path d="M95.3125 14.0625H87.5V17.1875H92.0297L74.2562 39.0625H54.6875C54.2938 39.0625 53.9141 39.2125 53.6234 39.4812L32.1984 59.375H3.125V62.5H32.8125C33.2062 62.5 33.5875 62.35 33.8766 62.0812L55.3016 42.1875H75C75.4703 42.1875 75.9156 41.975 76.2125 41.6109L93.75 20.0266V23.4375H96.875V15.625C96.875 14.7609 96.1766 14.0625 95.3125 14.0625Z" fill="#F25C3A"/>
<path d="M42.1875 20.3125V46.6266L53.0891 36.2531C53.3797 35.9781 53.7641 35.825 54.1641 35.8234L62.5 35.8047V20.3125H42.1875Z" fill="#F25C3A"/>
<path d="M39.0625 29.6875H21.875V56.25H32.0734L39.0625 49.6V29.6875Z" fill="#F25C3A"/>
<path d="M65.625 45.3125V83.6828C72.4344 80.1656 78 74.4344 81.25 67.4031V45.3125H65.625Z" fill="#F25C3A"/>
<path d="M39.0625 61.9438L35.5719 65.2048C35.2828 65.4735 34.9016 65.6251 34.5047 65.6251H21.875V72.8751C26.1016 78.8485 32.1609 83.3454 39.0625 85.6876V61.9438Z" fill="#F25C3A"/>
<path d="M62.5 45.3125H56.8672L42.1875 59.025V86.5859C44.7188 87.1844 47.3375 87.5 50 87.5C54.3734 87.5 58.5984 86.6516 62.5 85.1047V45.3125Z" fill="#F25C3A"/>
</g>
<defs>
<clipPath id="clip0_342_1572">
<rect width="100" height="100" fill="white"/>
</clipPath>
</defs>
</svg>
