<svg width="99" height="99" viewBox="0 0 99 99" fill="none" xmlns="http://www.w3.org/2000/svg">
<g clip-path="url(#clip0_342_1605)">
<path d="M49.011 8.68896C39.028 8.68896 30.47 15.299 26.853 24.701H71.168C67.553 15.3 58.994 8.68896 49.011 8.68896Z" fill="#F25C3A"/>
<path d="M93.357 48.9379H79.496C80.269 45.8099 80.733 42.5149 80.844 39.1079C85.784 36.1409 91.461 30.9399 92.872 22.3129C93.288 19.7689 91.562 17.3709 89.019 16.9559C86.474 16.5419 84.08 18.2659 83.663 20.8069C82.904 25.4469 79.94 28.5309 77.03 30.5029H21.009C18.094 28.5289 15.117 25.4449 14.359 20.8069C13.943 18.2649 11.551 16.5419 9.002 16.9559C6.459 17.3719 4.734 19.7689 5.15 22.3129C6.561 30.9389 12.237 36.1409 17.178 39.1079C17.289 42.5149 17.752 45.8099 18.526 48.9379H4.665C2.089 48.9379 0 51.0269 0 53.6039C0 56.1809 2.089 58.2699 4.665 58.2699H21.987C23.298 60.8469 24.842 63.2249 26.589 65.3529C20.489 69.9239 14.776 77.9009 12.005 82.0979C10.585 84.2459 11.176 87.1399 13.325 88.5609C14.117 89.0839 15.011 89.3339 15.893 89.3339C17.407 89.3339 18.892 88.5989 19.79 87.2419C24.414 80.2519 30.376 73.6459 33.536 71.7699C37.332 74.3709 41.609 76.0309 46.158 76.5289V41.2969H51.866V76.5289C56.409 76.0309 60.679 74.3759 64.474 71.7809C67.669 73.6709 73.62 80.2639 78.234 87.2419C79.132 88.5979 80.617 89.3339 82.13 89.3339C83.013 89.3339 83.906 89.0839 84.698 88.5609C86.846 87.1409 87.438 84.2489 86.018 82.0979C83.244 77.8979 77.545 69.9139 71.439 65.3469C73.184 63.2199 74.725 60.8439 76.035 58.2699H93.357C95.932 58.2699 98.022 56.1809 98.022 53.6039C98.022 51.0269 95.934 48.9379 93.357 48.9379Z" fill="#F25C3A"/>
</g>
<defs>
<clipPath id="clip0_342_1605">
<rect width="98.023" height="98.023" fill="white"/>
</clipPath>
</defs>
</svg>
