<svg width="44" height="44" viewBox="0 0 44 44" fill="none" xmlns="http://www.w3.org/2000/svg">
<path d="M41.9674 27.0178C41.082 35.9329 33.8583 43.0984 24.9368 43.9181C14.3906 44.8872 5.39773 37.1333 4.3546 27.0551H2.49596C1.36598 27.0551 0.659754 25.8317 1.22485 24.8532L5.3817 17.6549C5.94673 16.6765 7.35904 16.6766 7.924 17.655L12.0801 24.8533C12.645 25.8319 11.9388 27.0551 10.8089 27.0551H9.19079C10.242 34.5796 17.2472 40.2229 25.279 39.0457C31.2224 38.1747 36.0433 33.4856 37.0535 27.5642C38.5655 18.7016 31.7455 10.9881 23.1582 10.9881C20.3734 10.9881 17.6856 11.7961 15.3767 13.3261C14.3052 14.0361 12.8199 13.8957 12.0338 12.8787C11.1778 11.7714 11.4451 10.1906 12.5864 9.41988C15.0636 7.74645 17.8718 6.70065 20.814 6.3365V3.608H18.8883C18.2258 3.608 17.6887 3.07094 17.6887 2.40835V1.19965C17.6887 0.537059 18.2257 0 18.8883 0H27.8185C28.4811 0 29.0182 0.537059 29.0182 1.19965V2.40835C29.0182 3.07087 28.4811 3.608 27.8185 3.608H25.6975V6.36497C35.5365 7.69252 43.0008 16.6123 41.9674 27.0178ZM42.5887 8.86219L38.9715 5.51869C38.4849 5.06899 37.726 5.09882 37.2762 5.58534L36.3194 6.62056C35.8696 7.10708 35.8994 7.86608 36.386 8.31586L40.0032 11.6593C40.4898 12.1089 41.2487 12.0792 41.6985 11.5926L42.6554 10.5574C43.1052 10.0709 43.0753 9.3119 42.5887 8.86219ZM23.1013 13.4544V25.1873H34.7171C34.7173 18.0421 29.2961 13.4544 23.1013 13.4544Z" fill="#F25C3A"/>
</svg>
