<svg width="100" height="100" viewBox="0 0 100 100" fill="none" xmlns="http://www.w3.org/2000/svg">
<g clip-path="url(#clip0_342_1582)">
<path d="M35.8236 52.3918C36.5726 52.3918 37.3218 52.1063 37.8937 51.5352L61.4134 28.0486C64.5156 24.951 66.224 20.832 66.224 16.4508C66.224 12.0693 64.5156 7.95059 61.4134 4.85293C55.0129 -1.53887 44.5976 -1.53887 38.1968 4.85293L35.8236 7.22266L33.4505 4.85293C27.0498 -1.53887 16.6347 -1.53867 10.2338 4.85293C7.1318 7.95059 5.4234 12.0695 5.4234 16.4508C5.4234 20.832 7.1318 24.951 10.2338 28.0486L33.7535 51.5352C34.3253 52.1063 35.0744 52.3918 35.8236 52.3918Z" fill="#F25C3A"/>
<path d="M91.1123 45.3138C86.11 40.3187 77.9707 40.3187 72.9686 45.3138L71.7768 46.5036L70.5854 45.3138C65.5828 40.3187 57.4438 40.3185 52.4414 45.3138C50.0168 47.7349 48.6816 50.9542 48.6816 54.3788C48.6816 57.8034 50.0168 61.0226 52.4414 63.4439L69.7064 80.6845C70.2785 81.2556 71.0275 81.5411 71.7768 81.5411C72.5258 81.5411 73.275 81.2556 73.8469 80.6845L91.1123 63.4439C93.5367 61.0228 94.8721 57.8034 94.8721 54.3788C94.8721 50.9542 93.5369 47.7349 91.1123 45.3138Z" fill="#F25C3A"/>
<path d="M38.4377 73.4743L38.2596 73.6523L38.0814 73.4743C34.2787 69.6773 28.0912 69.6775 24.2885 73.4743C22.4451 75.3152 21.4297 77.763 21.4297 80.3669C21.4297 82.9708 22.4449 85.4187 24.2885 87.2595L36.1895 99.1437C36.7613 99.7148 37.5105 100 38.2596 100C39.0086 100 39.7578 99.7148 40.3297 99.1437L52.2307 87.2595C54.074 85.4187 55.0895 82.9708 55.0895 80.3669C55.0895 77.763 54.0742 75.3152 52.2307 73.4743C48.4279 69.6771 42.2404 69.6773 38.4377 73.4743Z" fill="#F25C3A"/>
<path d="M75.6492 16.4512H79.927C81.5449 16.4512 82.8567 15.1395 82.8567 13.5215C82.8567 11.9035 81.5449 10.5918 79.927 10.5918H75.6492C74.0313 10.5918 72.7195 11.9035 72.7195 13.5215C72.7195 15.1395 74.0313 16.4512 75.6492 16.4512Z" fill="#F25C3A"/>
<path d="M86.3597 27.0436C87.9776 27.0436 89.2894 25.7319 89.2894 24.114V19.8423C89.2894 18.2243 87.9776 16.9126 86.3597 16.9126C84.7417 16.9126 83.43 18.2243 83.43 19.8423V24.114C83.43 25.7319 84.7417 27.0436 86.3597 27.0436Z" fill="#F25C3A"/>
<path d="M97.0704 10.5918H92.7927C91.1747 10.5918 89.863 11.9035 89.863 13.5215C89.863 15.1395 91.1747 16.4512 92.7927 16.4512H97.0704C98.6884 16.4512 100 15.1395 100 13.5215C100 11.9035 98.6884 10.5918 97.0704 10.5918Z" fill="#F25C3A"/>
<path d="M86.3597 10.1311C87.9776 10.1311 89.2894 8.81933 89.2894 7.20137V2.92969C89.2894 1.31172 87.9776 0 86.3597 0C84.7417 0 83.43 1.31172 83.43 2.92969V7.20137C83.43 8.81933 84.7417 10.1311 86.3597 10.1311Z" fill="#F25C3A"/>
<path d="M7.20742 55.4897H2.92969C1.31172 55.4897 0 56.8015 0 58.4194C0 60.0374 1.31172 61.3491 2.92969 61.3491H7.20742C8.82539 61.3491 10.1371 60.0374 10.1371 58.4194C10.1371 56.8015 8.82539 55.4897 7.20742 55.4897Z" fill="#F25C3A"/>
<path d="M13.6401 61.8101C12.0222 61.8101 10.7104 63.1218 10.7104 64.7397V69.0114C10.7104 70.6294 12.0222 71.9411 13.6401 71.9411C15.2581 71.9411 16.5698 70.6294 16.5698 69.0114V64.7397C16.5698 63.1218 15.2583 61.8101 13.6401 61.8101Z" fill="#F25C3A"/>
<path d="M27.2803 58.4194C27.2803 56.8015 25.9686 55.4897 24.3506 55.4897H20.0729C18.4549 55.4897 17.1432 56.8015 17.1432 58.4194C17.1432 60.0374 18.4549 61.3491 20.0729 61.3491H24.3506C25.9686 61.3491 27.2803 60.0374 27.2803 58.4194Z" fill="#F25C3A"/>
<path d="M13.6401 44.8975C12.0222 44.8975 10.7104 46.2092 10.7104 47.8271V52.0988C10.7104 53.7168 12.0222 55.0285 13.6401 55.0285C15.2581 55.0285 16.5698 53.7168 16.5698 52.0988V47.8271C16.5698 46.2092 15.2583 44.8975 13.6401 44.8975Z" fill="#F25C3A"/>
</g>
<defs>
<clipPath id="clip0_342_1582">
<rect width="100" height="100" fill="white"/>
</clipPath>
</defs>
</svg>
