<svg width="100" height="100" viewBox="0 0 100 100" fill="none" xmlns="http://www.w3.org/2000/svg">
<g clip-path="url(#clip0_342_1594)">
<path d="M14.1873 99.6535C14.7553 100.07 15.4937 100.108 16.0996 99.786L34.9006 89.9027L53.7016 99.786C53.9667 99.9185 54.2507 99.9945 54.5536 99.9945C54.9323 99.9945 55.292 99.8807 55.6141 99.6535C56.163 99.2559 56.447 98.5553 56.3336 97.8739L52.7362 76.9332L67.9588 62.1082C68.451 61.6349 68.6214 60.9154 68.413 60.2527C68.2047 59.5901 67.6367 59.1167 66.9551 59.0221L45.9389 55.9738L36.5289 36.9264C35.923 35.6957 33.8971 35.6957 33.2912 36.9264L23.8623 55.9738L2.8461 59.0221C2.16449 59.1167 1.59649 59.609 1.38822 60.2527C1.17995 60.9154 1.35035 61.6349 1.84262 62.1082L17.0652 76.9332L13.4678 97.8739C13.3353 98.5744 13.6193 99.2559 14.1873 99.6535Z" fill="#F25C3A"/>
<path d="M98.6119 75.5126C98.4037 74.85 97.8357 74.3766 97.1541 74.282L88.5963 73.0323L84.7717 65.2696C84.4686 64.6448 83.844 64.2661 83.1432 64.2661C82.4429 64.2661 81.8179 64.6637 81.515 65.2696L77.6904 73.0323L69.1324 74.282C68.4508 74.3766 67.8828 74.8691 67.6747 75.5126C67.4663 76.1753 67.6369 76.895 68.129 77.3683L74.3202 83.4079L72.8623 91.928C72.7487 92.6098 73.0327 93.2912 73.5818 93.7078C74.1309 94.1054 74.8882 94.162 75.4943 93.8403L83.1432 89.8073L90.7924 93.8403C91.0575 93.9727 91.3415 94.0486 91.6444 94.0486C92.0231 94.0486 92.3828 93.935 92.7047 93.7078C93.2538 93.31 93.5378 92.6096 93.4242 91.928L91.9665 83.4079L98.1576 77.3683C98.6498 76.895 98.8202 76.1753 98.6119 75.5126Z" fill="#F25C3A"/>
<path d="M61.8809 28.2926C61.275 27.062 59.2493 27.062 58.6432 28.2926L55.8787 33.897L49.7064 34.7868C49.0248 34.8815 48.4568 35.3738 48.2485 36.0175C48.0402 36.6802 48.2106 37.3997 48.7029 37.873L53.1712 42.2277L52.111 48.3811C51.9972 49.0627 52.2812 49.7443 52.8304 50.1611C53.1523 50.3881 53.512 50.5019 53.8907 50.5019C54.1747 50.5019 54.4778 50.4261 54.7238 50.2747L60.2524 47.3589L65.781 50.2368C66.0459 50.3693 66.3299 50.3883 66.6139 50.3883C66.633 50.3883 66.6517 50.3883 66.6517 50.3883C67.6552 50.3883 68.4694 49.6309 68.4694 48.6275C68.4694 48.4003 68.4317 48.2299 68.3558 48.0216L67.3523 42.2279L71.8206 37.8732C72.3131 37.3999 72.4833 36.6804 72.275 36.0177C72.0666 35.355 71.4985 34.8817 70.8171 34.787L64.6448 33.8972L61.8809 28.2926Z" fill="#F25C3A"/>
<path d="M20.4543 5.32635C19.6212 3.62234 16.838 3.62234 15.986 5.32635L12.1993 13.0134L3.71705 14.2441C2.77037 14.3766 1.9941 15.0393 1.7101 15.9291C1.42609 16.8379 1.6533 17.8225 2.3349 18.4852L8.46937 24.4682L7.03042 32.9125C6.87895 33.8403 7.25763 34.787 8.01497 35.336C8.45044 35.6579 8.96164 35.8094 9.47285 35.8094C9.87045 35.8094 10.2681 35.6958 10.6278 35.5064L18.2201 31.4925L25.8125 35.4496C26.1722 35.639 26.5698 35.6579 26.9674 35.6579C26.9864 35.6579 27.0053 35.6579 27.0242 35.6579C28.4064 35.6579 29.5045 34.6166 29.5045 33.2344C29.5045 32.9125 29.4477 32.6853 29.3341 32.4013L27.9709 24.4303L34.1054 18.4473C34.787 17.7846 35.0331 16.8001 34.7302 15.8913C34.4273 14.9825 33.651 14.3387 32.7232 14.2062L24.241 12.9755L20.4543 5.32635Z" fill="#F25C3A"/>
<path d="M93.765 47.8886C93.6512 47.5668 93.3672 47.3206 93.0266 47.2638L90.1676 46.8473L88.8991 44.2723C88.5961 43.6475 87.5737 43.6475 87.2708 44.2723L86.0022 46.8473L83.1431 47.2638C82.8023 47.3206 82.5183 47.5478 82.4049 47.8886C82.2911 48.2105 82.3857 48.5702 82.6321 48.8164L84.6956 50.8235L84.2034 53.6635C84.1466 54.0043 84.2789 54.3451 84.5629 54.5534C84.8469 54.7617 85.2067 54.7804 85.5096 54.629L88.0656 53.2847L90.6217 54.629C90.7542 54.7047 90.9057 54.7428 91.0382 54.7428C91.2275 54.7428 91.4169 54.6858 91.5683 54.5724C91.8523 54.3641 91.9849 54.0233 91.9281 53.6825L91.4358 50.8424L93.4994 48.8355C93.7839 48.5892 93.8786 48.2294 93.765 47.8886Z" fill="#F25C3A"/>
<path d="M87.5924 22.6696C87.4222 22.3666 87.0814 22.2152 86.7404 22.2341L83.8627 22.4802L82.0449 20.2461C81.6094 19.716 80.6249 19.9432 80.4734 20.6058L79.8107 23.408L77.1222 24.4493C76.8003 24.5819 76.5733 24.8659 76.5542 25.2067C76.5163 25.5475 76.6867 25.8883 76.9896 26.0587L79.451 27.5544L79.6214 30.4323C79.6403 30.7731 79.8486 31.0761 80.1705 31.2086C80.4922 31.3412 80.8521 31.2844 81.1172 31.0572L83.2945 29.1827L86.0776 29.9211C86.2292 29.959 86.3616 29.959 86.5132 29.9211C86.7026 29.8833 86.8728 29.7886 86.9866 29.6371C87.2136 29.3721 87.2706 29.0123 87.138 28.6905L86.021 26.0398L87.5735 23.6163C87.763 23.3323 87.7818 22.9725 87.5924 22.6696Z" fill="#F25C3A"/>
<path d="M62.2785 6.15929C62.0134 5.70488 61.502 5.45874 60.9908 5.49661L56.6361 5.85635L53.8718 2.46724C53.2091 1.6531 51.7134 2.01284 51.4673 3.01632L50.4638 7.27636L46.3931 8.86678C45.9008 9.05612 45.56 9.51052 45.5221 10.0217C45.4843 10.5519 45.7304 11.0441 46.1848 11.3092L49.9147 13.5812L50.1608 17.9549C50.1987 18.485 50.5206 18.9394 50.9939 19.1477C51.4673 19.356 52.0353 19.2613 52.4331 18.9205L55.7464 16.0615L59.9686 17.1786C60.1958 17.2354 60.4041 17.2354 60.6313 17.1975C60.9153 17.1407 61.1614 16.9893 61.3507 16.7621C61.6916 16.3645 61.7862 15.8154 61.5779 15.3231L59.8739 11.2903L62.2406 7.61717C62.5436 7.1817 62.5436 6.61369 62.2785 6.15929Z" fill="#F25C3A"/>
<path d="M81.0228 2.14536C80.8902 1.91816 80.625 1.78563 80.3601 1.80456L78.107 1.99389L76.6681 0.233074C76.3271 -0.183464 75.551 -0.013062 75.4183 0.517077L74.9071 2.71337L72.8054 3.54645C72.5593 3.64111 72.37 3.88725 72.351 4.15232C72.3321 4.41739 72.4648 4.68246 72.692 4.81499L74.623 5.98887L74.7556 8.2609C74.7747 8.52597 74.9449 8.7721 75.1911 8.86677C75.4374 8.98037 75.7214 8.92357 75.9295 8.75317L77.6524 7.27635L79.8489 7.84436C79.9625 7.88223 80.0761 7.88223 80.1897 7.84436C80.3412 7.80649 80.4737 7.73076 80.5684 7.61716C80.7388 7.40889 80.7956 7.12489 80.682 6.87875L79.811 4.79606L81.0417 2.88377C81.1742 2.6755 81.1742 2.37257 81.0228 2.14536Z" fill="#F25C3A"/>
</g>
<defs>
<clipPath id="clip0_342_1594">
<rect width="100" height="100" fill="white"/>
</clipPath>
</defs>
</svg>
