<svg width="100" height="94" viewBox="0 0 100 94" fill="none" xmlns="http://www.w3.org/2000/svg">
<path d="M98.2492 1.30151C97.2688 0.563746 95.9993 0.32876 94.8205 0.667505C90.2955 1.96679 84.5285 1.59982 77.2271 1.13595C72.6556 0.845271 67.4745 0.51568 61.5235 0.51568C56.8604 0.51568 52.6704 2.57181 49.8048 5.82193C46.9391 2.57181 42.7498 0.51568 38.086 0.51568C32.1358 0.51568 26.9539 0.845271 22.3824 1.13595C15.081 1.60058 9.31397 1.96756 4.78897 0.667505C3.61023 0.32876 2.34069 0.563746 1.36108 1.30151C0.380699 2.04004 -0.195321 3.19513 -0.195321 4.42194V69.2261C-0.206002 73.407 1.41448 77.34 4.36706 80.3002C7.31964 83.2604 11.2488 84.8908 15.4297 84.8908H43.7501C45.9077 84.8908 47.6563 83.1421 47.6563 80.9845C47.6563 78.827 45.9077 77.0783 43.7501 77.0783H15.4297C13.3392 77.0783 11.3747 76.2635 9.89838 74.7834C8.42209 73.3033 7.61185 71.3364 7.61719 69.236V67.1639C9.91746 68.4975 12.5847 69.2658 15.4297 69.2658H44.5313C45.3995 69.2658 45.9939 69.8052 46.2609 70.3095C46.962 71.6332 48.3155 72.3885 49.7163 72.3885C50.3327 72.3885 50.9583 72.2428 51.5404 71.9338C52.7169 71.3112 53.4425 70.1729 53.5897 68.9453C53.666 68.6409 53.711 68.3243 53.711 67.9962V16.1407C53.711 11.8331 57.2152 8.32819 61.5235 8.32819C67.2257 8.32819 72.2756 8.64939 76.7312 8.93244C82.5578 9.30323 87.4994 9.61756 91.9923 9.13004V37.2345C91.9923 39.3921 93.741 41.1407 95.8986 41.1407C98.0562 41.1407 99.8048 39.3921 99.8048 37.2345V4.42194C99.8048 3.19513 99.2288 2.04004 98.2492 1.30151ZM15.4297 61.4533C11.1221 61.4533 7.61719 57.9483 7.61719 53.6408V9.13004C12.1101 9.61756 17.0509 9.30323 22.8775 8.93244C27.3339 8.64939 32.3838 8.32819 38.086 8.32819C42.3935 8.32819 45.8985 11.8331 45.8985 16.1407V61.5494C45.4499 61.4861 44.9936 61.4533 44.5313 61.4533H15.4297ZM39.2579 22.586C39.2579 24.7436 37.5092 26.4923 35.3516 26.4923H18.3594C16.2018 26.4923 14.4531 24.7436 14.4531 22.586C14.4531 20.4284 16.2018 18.6798 18.3594 18.6798H35.3516C37.5092 18.6798 39.2579 20.4284 39.2579 22.586ZM33.3985 38.211C33.3985 40.3686 31.6498 42.1173 29.4922 42.1173H18.3594C16.2018 42.1173 14.4531 40.3686 14.4531 38.211C14.4531 36.0535 16.2018 34.3048 18.3594 34.3048H29.4922C31.6498 34.3048 33.3985 36.0535 33.3985 38.211ZM79.8028 50.2342L58.3573 71.6324C57.9018 72.0871 57.5654 72.6471 57.3785 73.2628L52.7077 88.6384C52.2942 90.0017 52.6551 91.4826 53.6492 92.5019C54.3946 93.2656 55.407 93.6806 56.4462 93.6806C56.7933 93.6806 57.1442 93.6341 57.4883 93.538L73.2553 89.1709C73.9038 88.9908 74.495 88.6468 74.9719 88.1707L96.3731 66.8106C100.942 62.2414 100.942 54.8065 96.3731 50.2373C91.8039 45.668 84.369 45.668 79.8028 50.2342ZM70.1791 81.9153L62.2476 84.1126L64.5684 76.471L79.0391 62.0323L84.5643 67.5576L70.1791 81.9153ZM90.851 61.2831L90.0941 62.0384L84.5697 56.514L85.3242 55.7617C86.847 54.2381 89.3251 54.2381 90.8479 55.7617C92.3715 57.2846 92.3715 59.7626 90.851 61.2831Z" fill="#F25C3A"/>
</svg>
