<svg width="100" height="100" viewBox="0 0 100 100" fill="none" xmlns="http://www.w3.org/2000/svg">
<g clip-path="url(#clip0_342_1617)">
<path d="M85.6738 11.04H70.8439C69.0291 11.04 67.558 12.5113 67.558 14.326C67.558 16.1406 69.0293 17.6119 70.8439 17.6119H82.3877V29.1557C82.3877 30.9705 83.859 32.4416 85.6736 32.4416C87.4883 32.4416 88.9596 30.9704 88.9596 29.1557V14.326C88.96 12.5113 87.4887 11.04 85.6738 11.04Z" fill="#F25C3A"/>
<path d="M85.674 67.5581C83.8592 67.5581 82.3881 69.0294 82.3881 70.844V82.3878H70.8443C69.0294 82.3878 67.5583 83.8591 67.5583 85.6738C67.5583 87.4884 69.0296 88.9597 70.8443 88.9597H85.6742C87.489 88.9597 88.9601 87.4884 88.9601 85.6738V70.8439C88.9601 69.0294 87.4888 67.5581 85.674 67.5581Z" fill="#F25C3A"/>
<path d="M29.1556 11.04H14.3259C12.511 11.04 11.0399 12.5113 11.0399 14.326V29.1557C11.0399 30.9707 12.5112 32.442 14.3259 32.442C16.1405 32.442 17.6118 30.9707 17.6118 29.1561V17.6121H29.1556C30.9704 17.6121 32.4415 16.1408 32.4415 14.3262C32.4415 12.5115 30.9704 11.04 29.1556 11.04Z" fill="#F25C3A"/>
<path d="M29.156 82.3883H17.6118V70.8445C17.6118 69.0297 16.1405 67.5586 14.3259 67.5586C12.5112 67.5586 11.0399 69.0299 11.0399 70.8445V85.6744C11.0399 87.4893 12.5112 88.9604 14.3259 88.9604H29.1556C30.9704 88.9604 32.4415 87.4891 32.4415 85.6744C32.4415 83.8598 30.9706 82.3883 29.156 82.3883Z" fill="#F25C3A"/>
<path d="M99.195 47.8451C98.9532 47.5666 93.1702 40.9478 84.3092 34.2568C73.4312 26.0429 63.0129 21.4675 53.2859 20.6196V24.3466C64.9209 25.8286 74.1707 35.0767 75.6529 46.7136H81.4346C83.2494 46.7136 84.7205 48.1849 84.7205 49.9996C84.7205 51.8142 83.2492 53.2855 81.4346 53.2855H75.6529C74.1736 64.9004 64.9416 74.168 53.2859 75.6525V79.3795C63.0129 78.5315 73.4312 73.9564 84.3092 65.7424C93.1702 59.0513 98.9532 52.4324 99.195 52.1541C100.268 50.9185 100.268 49.0808 99.195 47.8451Z" fill="#F25C3A"/>
<path d="M18.5653 46.7142H24.347C25.8263 35.0993 35.0583 25.8317 46.714 24.3472V20.6196C36.987 21.4677 26.5687 26.0427 15.6907 34.2568C6.82975 40.948 1.04673 47.5669 0.804933 47.8453C-0.268311 49.0812 -0.268311 50.9185 0.804933 52.1547C1.04673 52.4332 6.82975 59.0519 15.6907 65.743C26.5687 73.9568 36.987 78.5322 46.714 79.3801V75.6531C35.079 74.1711 25.8292 64.923 24.347 53.2861H18.5653C16.7505 53.2861 15.2794 51.8148 15.2794 50.0002C15.2792 48.1855 16.7505 46.7142 18.5653 46.7142Z" fill="#F25C3A"/>
<path d="M53.2861 53.2856V69.0074C61.294 67.6273 67.6276 61.2935 69.0078 53.2856H53.2861Z" fill="#F25C3A"/>
<path d="M30.9923 53.2856C32.3724 61.2935 38.7062 67.6271 46.714 69.0074V53.2856H30.9923Z" fill="#F25C3A"/>
<path d="M30.9923 46.7139H46.714V30.9922C38.7062 32.3725 32.3724 38.7061 30.9923 46.7139Z" fill="#F25C3A"/>
<path d="M53.2861 30.9922V46.7139H69.0078C67.6276 38.7059 61.2938 32.3723 53.2861 30.9922Z" fill="#F25C3A"/>
</g>
<defs>
<clipPath id="clip0_342_1617">
<rect width="100" height="100" fill="white"/>
</clipPath>
</defs>
</svg>
