<svg width="100" height="62" viewBox="0 0 100 62" fill="none" xmlns="http://www.w3.org/2000/svg">
<path d="M53.864 0.0805664C48.1263 0.0805664 43.1777 0.607029 38.9838 1.84736C20.0763 6.70811 0 31.8087 0 31.8087C0 31.8087 25.6454 61.9193 46.138 61.9193C51.8747 61.9193 56.8243 61.3917 61.0173 60.1505C79.9248 55.2896 100 30.1921 100 30.1921C100 30.1921 74.3567 0.0805664 53.864 0.0805664ZM48.842 52.0763C37.8346 52.0763 28.9138 43.1544 28.9138 32.1481C28.9138 21.1396 37.8346 12.2188 48.842 12.2188C59.8494 12.2188 68.7713 21.1396 68.7713 32.1481C68.7713 43.1544 59.8494 52.0763 48.842 52.0763Z" fill="#F25C3A"/>
<path d="M49.3771 22.7192C49.7025 23.3257 49.9047 24.0079 49.9047 24.7453C49.9047 27.1293 47.9694 29.0624 45.5865 29.0624C43.7118 29.0624 42.13 27.8579 41.5343 26.1886C40.211 27.8135 39.3849 29.8623 39.3849 32.1221C39.3849 37.3443 43.6188 41.5803 48.842 41.5803C54.0651 41.5803 58.299 37.3465 58.299 32.1221C58.299 27.0808 54.3442 23.0046 49.3771 22.7192Z" fill="#F25C3A"/>
</svg>
