<svg width="206" height="27" viewBox="0 0 206 27" fill="none" xmlns="http://www.w3.org/2000/svg">
<path fill-rule="evenodd" clip-rule="evenodd" d="M50.1258 0C42.8606 0 36.9793 5.8813 36.9793 13.1465C36.9793 20.4116 42.8606 26.293 50.1258 26.293C57.3909 26.293 63.2722 20.4116 63.2722 13.1465C63.2722 5.8813 57.3909 0 50.1258 0ZM50.1258 21.4495C45.513 21.4495 41.8227 17.7208 41.8227 13.1465C41.8227 8.5721 45.5514 4.84343 50.1258 4.84343C54.7386 4.84343 58.4288 8.5721 58.4288 13.1465C58.4288 17.7208 54.7001 21.4495 50.1258 21.4495ZM31.7514 0.230631L25.6779 17.4902L19.835 0H17.1058L10.917 17.4902L5.26629 0.230631H0L8.99496 26.1776H12.493L18.3743 9.49466L23.9866 26.1776H27.4846L37.0177 0.230631H31.7514ZM72.075 0.230631H67.1162V25.601H79.9168V21.3342H72.075V0.230631ZM99.7134 4.49746L100.444 0.230631H83.3379V25.601H88.2967V14.415H97.7529L98.4833 10.1482H88.2967V4.49746H99.7134Z" fill="#F25C3A"/>
<path fill-rule="evenodd" clip-rule="evenodd" d="M163.486 2.99834C160.679 0.922579 157.604 0.538169 154.068 0.538169H130.965L131.696 4.92034H152.415V4.805H153.952C155.644 4.805 158.142 4.95877 160.18 6.49637C162.179 8.03397 163.293 10.6094 163.293 13.2618C163.293 15.9526 162.14 18.5665 160.141 19.9888C157.95 21.6033 155.183 21.6802 153.952 21.6802H152.415V21.6033H134.463L135.194 25.947H154.029C157.566 25.947 160.334 25.6011 163.332 23.5253C166.676 21.1805 168.444 17.5287 168.444 13.3003C168.367 9.03344 166.561 5.34318 163.486 2.99834ZM152.3 10.4941H132.618L133.349 14.8763H152.338V10.4941H152.3ZM172.673 25.9086H177.631V0.538169H172.673V25.9086ZM195.314 0H191.585L180.591 25.9086H185.973L188.202 20.5654H198.428L200.657 25.9086H206L195.314 0ZM189.779 16.5677L193.43 7.41894L197.005 16.5677H189.779ZM122.701 0.0769082L115.512 16.683L108.632 0.0769082H105.211L100.482 25.9086H105.518L108.094 10.2635L114.744 26.2545H116.127L123.085 10.2635L125.353 25.9086H130.389L126.122 0.0769082H122.701Z" fill="white"/>
</svg>
