<svg width="41" height="40" viewBox="0 0 41 40" fill="none" xmlns="http://www.w3.org/2000/svg">
<path fill-rule="evenodd" clip-rule="evenodd" d="M18.6799 36.9982C18.7555 37.4034 18.8009 37.6586 18.5589 37.8387C18.0295 36.9832 17.8026 35.9025 17.6665 34.4766C17.5152 34.5817 17.364 34.6867 17.2127 34.7918C17.1976 34.7017 17.1976 34.6117 17.1825 34.5216C17.3942 33.5911 17.1371 32.5554 16.7741 31.7299C16.638 32.0151 16.5775 32.3003 16.3657 32.5254C16.0783 31.7449 15.791 30.9795 15.5036 30.199C15.2465 29.2384 15.3372 28.0076 15.4128 27.2422C15.7002 24.3904 14.3541 21.6588 13.2499 20.2179C13.2197 20.2179 13.2046 20.2179 13.1743 20.2179C13.1441 20.383 13.1138 20.5481 13.0836 20.7132C13.0382 20.7132 12.9928 20.7282 12.9474 20.7282C12.3122 17.8164 9.21151 18.4618 8.72751 13.899C8.81826 13.869 8.90902 13.839 8.99977 13.8089C9.65015 13.944 9.6804 13.7339 10.0737 13.4337C10.0888 13.7789 10.1039 14.0341 10.2854 14.1692C11.1173 14.6645 11.9643 15.1598 12.7962 15.6551C12.0853 14.5144 11.3593 13.3587 10.6484 12.218C10.4215 12.308 10.2098 12.3981 9.9829 12.4881C9.9829 12.4581 9.9829 12.4431 9.9829 12.4131C10.1795 11.7227 9.89215 11.2574 10.0737 10.4769C10.2552 9.69641 10.6484 8.70581 10.9963 7.91032C11.1475 7.85029 11.3139 7.79025 11.4652 7.73021C13.4919 8.76585 15.3675 11.6326 17.606 12.233C19.4966 12.7433 21.7956 11.9778 23.4292 12.7733C24.6392 13.3587 25.2442 15.4149 26.2576 16.0153C27.1499 16.2104 28.0575 16.3905 28.9498 16.5856C30.2204 16.9759 31.2186 17.8614 32.3832 18.3117C32.3984 18.4018 32.3984 18.4918 32.4135 18.5819C31.5514 19.4974 30.4624 20.2629 28.7078 20.458C29.691 21.6888 30.9161 23.745 32.3681 24.3754C32.353 24.4505 32.3379 24.5105 32.3227 24.5855C32.0505 24.6306 31.7782 24.6906 31.506 24.7356C31.5514 24.7356 31.5967 24.7206 31.6421 24.7206C32.5496 25.5011 33.4723 26.2966 34.3798 27.0771C34.3798 27.1071 34.3798 27.1221 34.3798 27.1521C34.1529 27.1521 33.9109 27.1521 33.684 27.1521C33.8806 27.7975 34.4403 28.2478 34.9999 28.4729C34.9545 28.548 34.9243 28.623 34.8789 28.6981C34.6974 28.7581 34.5159 28.8181 34.3495 28.8932C35.1663 29.1934 36.6334 29.8238 37.4199 30.4692C39.3106 27.3923 40.3996 23.7751 40.3845 19.9027C40.324 8.8409 31.2337 -0.0745757 20.0865 0.000470319C8.90902 0.0154795 -0.0601963 9.03601 0.00030428 20.0978C0.0608049 30.9945 8.89389 39.8049 19.8143 40C19.542 38.9794 19.421 37.2983 18.6799 36.9982Z" fill="#F25C3A"/>
</svg>
