<svg width="286" height="70" viewBox="0 0 286 70" fill="none" xmlns="http://www.w3.org/2000/svg">
<path fill-rule="evenodd" clip-rule="evenodd" d="M32.3784 64.7468C32.5095 65.456 32.5882 65.9025 32.1687 66.2177C31.2511 64.7205 30.8579 62.8294 30.6219 60.3341C30.3597 60.5179 30.0976 60.7018 29.8354 60.8857C29.8092 60.7281 29.8092 60.5705 29.783 60.4129C30.15 58.7844 29.7043 56.972 29.0751 55.5274C28.8391 56.0264 28.7343 56.5255 28.3672 56.9195C27.8691 55.5536 27.371 54.2141 26.8729 52.8482C26.4272 51.1672 26.5845 49.0134 26.7156 47.6738C27.2137 42.6832 24.8804 37.9028 22.9666 35.3813C22.9141 35.3813 22.8879 35.3813 22.8355 35.3813C22.783 35.6702 22.7306 35.9591 22.6782 36.2481C22.5995 36.2481 22.5209 36.2743 22.4422 36.2743C21.3411 31.1787 15.9666 32.3081 15.1277 24.3232C15.285 24.2707 15.4423 24.2182 15.5996 24.1656C16.7269 24.402 16.7794 24.0343 17.461 23.509C17.4872 24.1131 17.5134 24.5596 17.828 24.796C19.27 25.6628 20.7381 26.5296 22.18 27.3964C20.9478 25.4001 19.6894 23.3777 18.4572 21.3814C18.064 21.539 17.697 21.6966 17.3037 21.8542C17.3037 21.8017 17.3037 21.7754 17.3037 21.7229C17.6445 20.5147 17.1464 19.7004 17.461 18.3346C17.7756 16.9687 18.4572 15.2352 19.0602 13.8431C19.3224 13.738 19.6108 13.6329 19.873 13.5279C23.386 15.3402 26.6369 20.3571 30.517 21.4077C33.7941 22.3007 37.7791 20.9612 40.6105 22.3533C42.7079 23.3777 43.7566 26.9761 45.5131 28.0268C47.0599 28.3682 48.6329 28.6834 50.1797 29.0249C52.3819 29.7078 54.1123 31.2575 56.131 32.0455C56.1572 32.2031 56.1572 32.3607 56.1834 32.5183C54.689 34.1205 52.8014 35.4601 49.7603 35.8015C51.4644 37.9553 53.5879 41.5538 56.1048 42.657C56.0785 42.7883 56.0523 42.8934 56.0261 43.0247C55.5542 43.1035 55.0823 43.2086 54.6104 43.2874C54.689 43.2874 54.7677 43.2611 54.8463 43.2611C56.4193 44.6269 58.0186 46.019 59.5916 47.3849C59.5916 47.4374 59.5916 47.4637 59.5916 47.5162C59.1984 47.5162 58.7789 47.5162 58.3856 47.5162C58.7264 48.6457 59.6965 49.4336 60.6665 49.8276C60.5878 49.959 60.5354 50.0903 60.4568 50.2216C60.1422 50.3267 59.8276 50.4317 59.5392 50.5631C60.9549 51.0884 63.4979 52.1916 64.8612 53.321C68.1383 47.9365 70.0259 41.6063 69.9997 34.8297C69.8949 15.4716 54.1385 -0.130507 34.8166 0.000823058C15.4423 0.0270892 -0.10434 15.813 0.000527419 35.1711C0.105395 54.2403 15.4161 69.6585 34.3447 70C33.8728 68.2139 33.6631 65.2721 32.3784 64.7468Z" fill="#F25C3A"/>
<path fill-rule="evenodd" clip-rule="evenodd" d="M130.126 22C122.861 22 116.979 27.8813 116.979 35.1465C116.979 42.4116 122.861 48.293 130.126 48.293C137.391 48.293 143.272 42.4116 143.272 35.1465C143.272 27.8813 137.391 22 130.126 22ZM130.126 43.4495C125.513 43.4495 121.823 39.7208 121.823 35.1465C121.823 30.5721 125.551 26.8434 130.126 26.8434C134.739 26.8434 138.429 30.5721 138.429 35.1465C138.429 39.7208 134.7 43.4495 130.126 43.4495ZM111.751 22.2306L105.678 39.4902L99.835 22H97.1058L90.917 39.4902L85.2663 22.2306H80L88.995 48.1776H92.493L98.3743 31.4947L103.987 48.1776H107.485L117.018 22.2306H111.751ZM152.075 22.2306H147.116V47.601H159.917V43.3342H152.075V22.2306ZM179.713 26.4975L180.444 22.2306H163.338V47.601H168.297V36.415H177.753L178.483 32.1482H168.297V26.4975H179.713Z" fill="#F25C3A"/>
<path fill-rule="evenodd" clip-rule="evenodd" d="M243.485 24.9983C240.679 22.9226 237.604 22.5382 234.068 22.5382H210.965L211.695 26.9203H232.415V26.805H233.952C235.644 26.805 238.142 26.9588 240.18 28.4964C242.178 30.034 243.293 32.6094 243.293 35.2618C243.293 37.9526 242.14 40.5665 240.141 41.9888C237.95 43.6033 235.182 43.6802 233.952 43.6802H232.415V43.6033H214.463L215.193 47.947H234.029C237.566 47.947 240.333 47.6011 243.332 45.5253C246.676 43.1805 248.444 39.5287 248.444 35.3003C248.367 31.0334 246.561 27.3432 243.485 24.9983ZM232.299 32.4941H212.618L213.348 36.8763H232.338V32.4941H232.299ZM252.673 47.9086H257.631V22.5382H252.673V47.9086ZM275.314 22H271.585L260.591 47.9086H265.973L268.202 42.5654H278.427L280.657 47.9086H286L275.314 22ZM269.778 38.5677L273.43 29.4189L277.005 38.5677H269.778ZM202.7 22.0769L195.512 38.683L188.631 22.0769H185.21L180.482 47.9086H185.518L188.093 32.2635L194.743 48.2545H196.127L203.085 32.2635L205.353 47.9086H210.388L206.122 22.0769H202.7Z" fill="white"/>
</svg>
