<svg width="24" height="20" viewBox="0 0 24 20" fill="none" xmlns="http://www.w3.org/2000/svg">
<path d="M21.8569 19.4286C22.3963 19.4286 22.8638 19.2504 23.2612 18.8987L16.4616 12.0989C16.2985 12.2157 16.1403 12.3293 15.991 12.4373C15.4821 12.8122 15.0691 13.1048 14.752 13.3144C14.4349 13.5245 14.013 13.7387 13.4864 13.9573C12.9594 14.1762 12.4685 14.2853 12.0131 14.2853H11.9997H11.9864C11.5309 14.2853 11.04 14.1763 10.5131 13.9573C9.98612 13.7387 9.56425 13.5245 9.24747 13.3144C8.93038 13.1048 8.51761 12.8123 8.0085 12.4373C7.86663 12.3333 7.70928 12.2192 7.53917 12.097L0.738281 18.8987C1.13563 19.2504 1.60339 19.4286 2.14283 19.4286H21.8569Z" fill="white"/>
<path d="M1.35282 7.81706C0.844017 7.47784 0.392814 7.08934 0 6.65173V16.9971L5.99313 11.004C4.79416 10.167 3.24935 9.10587 1.35282 7.81706Z" fill="white"/>
<path d="M22.6608 7.81706C20.8366 9.05176 19.2861 10.1147 18.0093 11.0064L24.0001 16.9974V6.65173C23.6159 7.08054 23.1696 7.46878 22.6608 7.81706Z" fill="white"/>
<path d="M21.8572 0.571411H2.14321C1.45545 0.571411 0.926684 0.803657 0.556267 1.26767C0.185544 1.7319 0.000488281 2.31247 0.000488281 3.00873C0.000488281 3.57113 0.246068 4.18051 0.737009 4.83703C1.22795 5.49329 1.75035 6.00876 2.30395 6.38371C2.60744 6.59813 3.52266 7.23439 5.0496 8.29227C5.87388 8.86347 6.5907 9.36134 7.2067 9.79097C7.73176 10.1568 8.18457 10.4736 8.55843 10.7366C8.60135 10.7667 8.66885 10.8149 8.75843 10.879C8.85495 10.9483 8.97708 11.0363 9.12776 11.1451C9.41792 11.355 9.65896 11.5246 9.85095 11.6542C10.0427 11.7838 10.275 11.9286 10.5475 12.0894C10.8198 12.2499 11.0766 12.3707 11.3176 12.451C11.5587 12.5313 11.7819 12.5715 11.9872 12.5715H12.0006H12.0139C12.2192 12.5715 12.4424 12.5313 12.6835 12.451C12.9245 12.3707 13.1811 12.2502 13.4536 12.0894C13.7259 11.9286 13.9579 11.7835 14.1502 11.6542C14.3422 11.5246 14.5832 11.355 14.8734 11.1451C15.0238 11.0363 15.1459 10.9483 15.2425 10.8792C15.3321 10.8149 15.3995 10.7669 15.4427 10.7366C15.734 10.5339 16.1878 10.2184 16.798 9.79468C17.9084 9.02321 19.5436 7.88773 21.7106 6.38371C22.3623 5.9285 22.9068 5.37917 23.3444 4.7365C23.7812 4.09384 24.0002 3.41972 24.0002 2.71435C24.0002 2.12502 23.7879 1.62075 23.3641 1.20074C22.9399 0.781261 22.4376 0.571411 21.8572 0.571411Z" fill="white"/>
</svg>
