<svg width="24" height="24" viewBox="0 0 24 24" fill="none" xmlns="http://www.w3.org/2000/svg">
<path d="M12.0113 9.94543C13.1572 9.94126 14.0698 9.02079 14.0656 7.87247C14.0614 6.72366 13.1469 5.80958 12.0005 5.80859C10.8446 5.80737 9.9214 6.73839 9.93024 7.89751C9.93883 9.04166 10.8618 9.94961 12.0113 9.94543Z" fill="#927398"/>
<path d="M12 0C5.37256 0 0 5.37281 0 12C0 18.6272 5.37256 24 12 24C18.6274 24 24 18.6272 24 12C24 5.37281 18.6274 0 12 0ZM12.0172 3.64923C14.3546 3.65561 16.2306 5.56751 16.2186 7.93068C16.2068 10.2393 14.3001 12.1105 11.9666 12.1026C9.65696 12.0948 7.76274 10.1799 7.77649 7.8666C7.7895 5.52798 9.68471 3.64284 12.0172 3.64923ZM16.7514 13.7634C16.2346 14.2939 15.6124 14.6779 14.9215 14.9458C14.2684 15.1989 13.5527 15.3264 12.8441 15.4113C12.9514 15.5277 13.0017 15.5849 13.0685 15.6517C14.03 16.6183 14.9961 17.58 15.9544 18.5494C16.281 18.8798 16.349 19.2894 16.1692 19.6731C15.9731 20.093 15.5328 20.3689 15.101 20.3392C14.8275 20.3203 14.6141 20.1846 14.4248 19.9938C13.699 19.2636 12.9595 18.5464 12.249 17.8025C12.0415 17.5859 11.9423 17.6272 11.7594 17.8152C11.0294 18.567 10.2875 19.3068 9.54132 20.0426C9.20618 20.3731 8.80745 20.433 8.41854 20.244C8.00532 20.0441 7.74261 19.6221 7.76274 19.1975C7.77698 18.9113 7.91791 18.6918 8.11482 18.4958C9.06672 17.5459 10.0157 16.593 10.9649 15.6409C11.028 15.5778 11.0864 15.5108 11.178 15.4125C9.88334 15.2773 8.71587 14.9586 7.71634 14.1771C7.5921 14.0798 7.46418 13.986 7.35124 13.877C6.91347 13.4569 6.86952 12.9755 7.21547 12.48C7.51182 12.0557 8.00876 11.9423 8.52559 12.1861C8.62576 12.233 8.72102 12.2924 8.81236 12.3553C10.6749 13.6352 13.2338 13.6703 15.1037 12.4125C15.2888 12.2711 15.4869 12.1547 15.7165 12.096C16.1624 11.9811 16.5788 12.1454 16.8179 12.5357C17.0917 12.9819 17.0885 13.4169 16.7514 13.7634Z" fill="#927398"/>
</svg>
